<svg width="452" height="756" viewBox="0 0 452 756" fill="none" xmlns="http://www.w3.org/2000/svg">
<g opacity="0.7" clip-path="url(#clip0_5_31)">
<path d="M445.605 180.922C442.664 181.505 439.563 181.544 436.437 180.947C433.311 180.35 430.443 179.171 427.924 177.544M442.055 172.857L442.43 170.893C442.637 169.808 441.926 168.76 440.841 168.553L436.912 167.802C435.827 167.595 434.779 168.307 434.572 169.392L434.197 171.356M437 178L437.01 178.002M428.623 184.545L442.375 187.171C443.46 187.379 444.507 186.667 444.714 185.582L446.591 175.76C446.798 174.675 446.086 173.627 445.001 173.42L431.25 170.793C430.165 170.586 429.118 171.297 428.91 172.382L427.034 182.205C426.827 183.29 427.538 184.337 428.623 184.545Z" stroke="#5CE9D4" strokeWidth="2" strokeLinecap="round" strokeLinejoin="round"/>
</g>
<path fill-rule="evenodd" clipRule="evenodd" d="M-211.692 308.114C-223.359 357.357 -213.957 407.385 -201.901 456.535C-187.952 513.402 -177.617 574.175 -136.264 615.629C-91.5216 660.479 -24.3266 718.522 33.3844 692.389C101.271 661.65 76.3643 547.973 129.203 495.422C162.689 462.118 224.987 489.281 264.148 462.883C320.251 425.065 393.815 382.489 397.002 314.905C400.075 249.764 323.654 211.253 278.224 164.468C236.927 121.941 202.663 58.4704 143.56 53.9094C83.4934 49.274 44.6896 116.782 -9.91621 142.232C-51.4207 161.577 -102.182 155.853 -137.554 184.932C-175.339 215.996 -200.416 260.517 -211.692 308.114Z" fill="#115FCE"/>
<g opacity="0.7" clip-path="url(#clip1_5_31)">
<path d="M67.1829 451.262C67.6395 451.573 68.2615 451.455 68.5723 450.998C68.8831 450.542 68.765 449.92 68.3084 449.609L67.1829 451.262ZM64.817 456.738C64.3605 456.427 63.7385 456.545 63.4277 457.002C63.1169 457.458 63.235 458.08 63.6916 458.391L64.817 456.738ZM65.689 448.91C65.5479 448.377 65.0006 448.058 64.4667 448.199C63.9327 448.34 63.6143 448.888 63.7554 449.422L65.689 448.91ZM66.3109 459.09C66.4521 459.623 66.9993 459.942 67.5333 459.801C68.0672 459.66 68.3857 459.112 68.2445 458.578L66.3109 459.09ZM73.7343 451.956C74.8634 456.227 72.316 460.605 68.0444 461.734L68.5555 463.668C73.895 462.257 77.0793 456.784 75.6679 451.444L73.7343 451.956ZM68.0444 461.734C63.7728 462.863 59.3947 460.316 58.2656 456.044L56.332 456.556C57.7434 461.895 63.2161 465.079 68.5555 463.668L68.0444 461.734ZM58.2656 456.044C57.1365 451.773 59.684 447.395 63.9555 446.266L63.4444 444.332C58.105 445.743 54.9206 451.216 56.332 456.556L58.2656 456.044ZM63.9555 446.266C68.2271 445.137 72.6052 447.684 73.7343 451.956L75.6679 451.444C74.2565 446.105 68.7839 442.921 63.4444 444.332L63.9555 446.266ZM65.7444 453.033C65.1078 453.202 64.5291 453.169 64.123 453.03C63.709 452.888 63.5844 452.688 63.5553 452.578L61.6217 453.089C61.8749 454.046 62.6551 454.641 63.4758 454.922C64.3044 455.205 65.2904 455.222 66.2555 454.967L65.7444 453.033ZM63.5553 452.578C63.5262 452.467 63.5355 452.232 63.8255 451.904C64.1099 451.583 64.5966 451.268 65.2333 451.1L64.7222 449.166C63.757 449.421 62.908 449.923 62.3277 450.579C61.7529 451.228 61.3685 452.131 61.6217 453.089L63.5553 452.578ZM65.2333 451.1C66.1071 450.869 66.8294 451.021 67.1829 451.262L68.3084 449.609C67.3535 448.959 65.9955 448.829 64.7222 449.166L65.2333 451.1ZM66.2555 454.967C66.8922 454.799 67.4708 454.831 67.8769 454.97C68.291 455.112 68.4156 455.312 68.4447 455.422L70.3783 454.911C70.1251 453.954 69.3449 453.359 68.5242 453.078C67.6956 452.795 66.7096 452.778 65.7444 453.033L66.2555 454.967ZM63.7554 449.422L64.011 450.388L65.9446 449.877L65.689 448.91L63.7554 449.422ZM66.0554 458.123L66.3109 459.09L68.2445 458.578L67.989 457.612L66.0554 458.123ZM66.7667 456.9C65.8929 457.131 65.1706 456.979 64.817 456.738L63.6916 458.391C64.6465 459.041 66.0044 459.171 67.2778 458.834L66.7667 456.9ZM68.4447 455.422C68.4738 455.533 68.4645 455.768 68.1745 456.096C67.8901 456.418 67.4033 456.732 66.7667 456.9L67.2778 458.834C68.2429 458.579 69.092 458.077 69.6723 457.421C70.2471 456.772 70.6315 455.869 70.3783 454.911L68.4447 455.422ZM64.011 450.388L66.0554 458.123L67.989 457.612L65.9446 449.877L64.011 450.388Z" fill="#38BCF5"/>
</g>
<g opacity="0.7" clip-path="url(#clip2_5_31)">
<path d="M361.848 391.95L363.249 394.407L368.163 391.604M374.641 389.213C374.441 389.169 374.241 389.12 374.041 389.065C371.077 388.254 368.677 386.4 367.131 384.007C364.582 385.279 361.573 385.654 358.608 384.843C358.408 384.788 358.211 384.729 358.016 384.665C357.522 385.528 357.127 386.468 356.852 387.473C355.376 392.866 357.825 398.407 362.466 401.058C367.81 401.139 372.738 397.616 374.214 392.223C374.489 391.218 374.627 390.208 374.641 389.213Z" stroke="#C183F9" strokeWidth="2" strokeLinecap="round" strokeLinejoin="round"/>
</g>
<g opacity="0.5" clip-path="url(#clip3_5_31)">
<path d="M119.338 248.055C118.873 247.758 118.255 247.894 117.957 248.359C117.66 248.825 117.796 249.443 118.261 249.74L119.338 248.055ZM121.183 250.421L120.644 251.264C121.11 251.561 121.728 251.425 122.026 250.959L121.183 250.421ZM125.072 246.193C125.369 245.728 125.233 245.109 124.768 244.812C124.302 244.514 123.684 244.651 123.387 245.116L125.072 246.193ZM126.084 240.126L128.664 251.846L130.618 251.416L128.037 239.696L126.084 240.126ZM127.903 253.037L118.137 255.187L118.567 257.141L128.333 254.991L127.903 253.037ZM116.945 254.426L114.365 242.707L112.412 243.137L114.992 254.856L116.945 254.426ZM115.126 241.515L117.08 241.085L116.65 239.132L114.696 239.562L115.126 241.515ZM122.939 239.795L124.892 239.365L124.462 237.412L122.509 237.842L122.939 239.795ZM118.137 255.187C117.597 255.306 117.064 254.965 116.945 254.426L114.992 254.856C115.348 256.474 116.949 257.497 118.567 257.141L118.137 255.187ZM128.664 251.846C128.783 252.385 128.442 252.919 127.903 253.037L128.333 254.991C129.951 254.634 130.974 253.034 130.618 251.416L128.664 251.846ZM128.037 239.696C127.681 238.078 126.081 237.055 124.462 237.412L124.892 239.365C125.432 239.246 125.965 239.587 126.084 240.126L128.037 239.696ZM114.365 242.707C114.246 242.167 114.587 241.634 115.126 241.515L114.696 239.562C113.078 239.918 112.055 241.518 112.412 243.137L114.365 242.707ZM118.261 249.74L120.644 251.264L121.721 249.578L119.338 248.055L118.261 249.74ZM122.026 250.959L125.072 246.193L123.387 245.116L120.34 249.882L122.026 250.959ZM118.603 238.702L120.556 238.272L120.126 236.318L118.173 236.748L118.603 238.702ZM120.986 240.225L119.033 240.655L119.463 242.608L121.416 242.178L120.986 240.225ZM119.033 240.655C118.493 240.774 117.96 240.433 117.841 239.893L115.888 240.323C116.244 241.941 117.845 242.964 119.463 242.608L119.033 240.655ZM121.748 239.033C121.866 239.573 121.525 240.106 120.986 240.225L121.416 242.178C123.034 241.822 124.057 240.221 123.701 238.603L121.748 239.033ZM120.556 238.272C121.095 238.153 121.629 238.494 121.748 239.033L123.701 238.603C123.345 236.985 121.744 235.962 120.126 236.318L120.556 238.272ZM118.173 236.748C116.555 237.105 115.532 238.705 115.888 240.323L117.841 239.893C117.722 239.354 118.063 238.82 118.603 238.702L118.173 236.748Z" fill="white"/>
</g>
<g opacity="0.7">
<path d="M245 354C246.105 354 247 354.895 247 356M251 356C251 359.314 248.314 362 245 362C244.394 362 243.809 361.91 243.257 361.743L241 364H239V366H237V368H234C233.448 368 233 367.552 233 367V364.414C233 364.149 233.105 363.895 233.293 363.707L239.257 357.743C239.09 357.191 239 356.606 239 356C239 352.686 241.686 350 245 350C248.314 350 251 352.686 251 356Z" stroke="#FACD34" strokeWidth="2" strokeLinecap="round" strokeLinejoin="round"/>
</g>
<g opacity="0.7" clip-path="url(#clip4_5_31)">
<path d="M199.003 529.694L194.105 530.701C193.023 530.923 192.326 531.98 192.548 533.062L194.359 541.878C194.582 542.96 195.639 543.657 196.721 543.435L210.435 540.618C211.517 540.395 212.214 539.338 211.991 538.256L210.18 529.44C209.958 528.358 208.901 527.661 207.819 527.883L202.921 528.89M199.003 529.694L198.802 528.715C198.579 527.633 199.276 526.576 200.358 526.353C201.44 526.131 202.497 526.828 202.72 527.91L202.921 528.89M199.003 529.694C199.225 530.776 200.282 531.473 201.364 531.251C202.446 531.029 203.143 529.972 202.921 528.89M199.633 537.732C200.715 537.51 201.412 536.452 201.19 535.37C200.967 534.289 199.91 533.592 198.828 533.814C197.746 534.036 197.049 535.093 197.271 536.175C197.494 537.257 198.551 537.954 199.633 537.732ZM199.633 537.732C200.913 537.469 202.169 538.063 202.807 539.122M199.633 537.732C198.354 537.995 197.433 539.036 197.264 540.26M204.907 533.586L207.845 532.982M205.712 537.504L207.671 537.102" stroke="#3CD6A0" strokeWidth="2" strokeLinecap="round" strokeLinejoin="round"/>
</g>
<defs>
<clipPath id="clip0_5_31">
<rect width="24" height="24" fill="white" transform="translate(427.465 163.962) rotate(10.8142)"/>
</clipPath>
<clipPath id="clip1_5_31">
<rect width="24" height="24" fill="white" transform="translate(51.3318 445.465) rotate(-14.8064)"/>
</clipPath>
<clipPath id="clip2_5_31">
<rect width="24" height="24" fill="white" transform="translate(356.333 378) rotate(15.3008)"/>
</clipPath>
<clipPath id="clip3_5_31">
<rect width="24" height="24" fill="white" transform="translate(107 237.16) rotate(-12.4165)"/>
</clipPath>
<clipPath id="clip4_5_31">
<rect width="24" height="24" fill="white" transform="translate(188 525.829) rotate(-11.6086)"/>
</clipPath>
</defs>
</svg>
