<svg width="516" height="647" viewBox="0 0 516 647" fill="none" xmlns="http://www.w3.org/2000/svg">
<g opacity="0.7">
<path d="M476 141L470.553 138.276C470.214 138.107 470 137.761 470 137.382V126.618C470 125.875 470.782 125.391 471.447 125.724L476 128M476 141L482 138M476 141V128M482 138L486.553 140.276C487.218 140.609 488 140.125 488 139.382V128.618C488 128.239 487.786 127.893 487.447 127.724L482 125M482 138V125M482 125L476 128" stroke="#83D6F9" strokeWidth="2" strokeLinecap="round" strokeLinejoin="round"/>
</g>
<path fill-rule="evenodd" clipRule="evenodd" d="M409.961 175.335C331.065 162.762 289.75 32.5338 211.686 49.5263C145.676 63.895 132.84 167.04 139.017 234.313C144.627 295.403 241.291 320.825 242.23 382.165C243.418 459.727 97.0801 526.689 144.437 588.127C190.358 647.703 284.235 521.552 358.564 533.091C416.908 542.149 435.364 631.595 493.427 642.307C558.205 654.258 637.582 642.444 680.521 592.49C723.469 542.525 712.425 465.006 701.709 399.996C692.871 346.378 647.715 309.207 625.641 259.551C603.246 209.171 622.754 126.903 571.397 106.85C515.821 85.1493 468.88 184.725 409.961 175.335Z" fill="#25C191"/>
<g opacity="0.7">
<path d="M80.0546 400H81.9997C83.1043 400 83.9997 400.895 83.9997 402V403C83.9997 404.105 84.8951 405 85.9997 405C87.1043 405 87.9997 405.895 87.9997 407V409.945M84.9997 392.936V394.5C84.9997 395.881 86.119 397 87.4997 397H87.9997C89.1043 397 89.9997 397.895 89.9997 399C89.9997 400.105 90.8951 401 91.9997 401C93.1043 401 93.9997 400.105 93.9997 399C93.9997 397.895 94.8951 397 95.9997 397L97.0642 397M91.9997 409.488V407C91.9997 405.895 92.8951 405 93.9997 405H97.0642M97.9997 401C97.9997 405.971 93.9703 410 88.9997 410C84.0291 410 79.9997 405.971 79.9997 401C79.9997 396.029 84.0291 392 88.9997 392C93.9703 392 97.9997 396.029 97.9997 401Z" stroke="#FB9447" strokeWidth="2" strokeLinecap="round" strokeLinejoin="round"/>
</g>
<g opacity="0.7" clip-path="url(#clip0_5_32)">
<path d="M290.172 210.015C289.628 209.92 289.11 210.284 289.015 210.828C288.92 211.372 289.283 211.89 289.827 211.985L290.172 210.015ZM292.783 212.502C293.327 212.597 293.845 212.234 293.94 211.69C294.035 211.146 293.671 210.627 293.127 210.532L292.783 212.502ZM289.483 213.955C288.939 213.86 288.42 214.224 288.325 214.768C288.23 215.312 288.594 215.83 289.138 215.925L289.483 213.955ZM292.093 216.442C292.637 216.538 293.155 216.174 293.25 215.63C293.346 215.086 292.982 214.568 292.438 214.472L292.093 216.442ZM287.217 209.498C286.673 209.403 286.155 209.766 286.06 210.31C285.965 210.854 286.328 211.373 286.872 211.468L287.217 209.498ZM286.882 211.47C287.426 211.565 287.944 211.201 288.04 210.657C288.135 210.113 287.771 209.595 287.227 209.499L286.882 211.47ZM286.528 213.438C285.984 213.343 285.465 213.706 285.37 214.25C285.275 214.794 285.639 215.313 286.183 215.408L286.528 213.438ZM286.193 215.41C286.737 215.505 287.255 215.141 287.35 214.597C287.445 214.053 287.081 213.535 286.537 213.44L286.193 215.41ZM296.772 207.109L294.703 218.93L296.673 219.274L298.742 207.454L296.772 207.109ZM293.546 219.742L283.695 218.018L283.351 219.988L293.201 221.712L293.546 219.742ZM282.883 216.861L284.952 205.04L282.982 204.696L280.913 216.516L282.883 216.861ZM286.109 204.228L288.079 204.573L288.424 202.603L286.454 202.258L286.109 204.228ZM293.989 205.607L295.959 205.952L296.304 203.982L294.334 203.637L293.989 205.607ZM283.695 218.018C283.151 217.923 282.788 217.405 282.883 216.861L280.913 216.516C280.627 218.148 281.719 219.703 283.351 219.988L283.695 218.018ZM294.703 218.93C294.608 219.474 294.09 219.837 293.546 219.742L293.201 221.712C294.833 221.998 296.388 220.906 296.673 219.274L294.703 218.93ZM298.742 207.454C299.028 205.822 297.936 204.267 296.304 203.982L295.959 205.952C296.503 206.047 296.867 206.565 296.772 207.109L298.742 207.454ZM284.952 205.04C285.047 204.496 285.565 204.133 286.109 204.228L286.454 202.258C284.822 201.972 283.267 203.064 282.982 204.696L284.952 205.04ZM289.827 211.985L292.783 212.502L293.127 210.532L290.172 210.015L289.827 211.985ZM289.138 215.925L292.093 216.442L292.438 214.472L289.483 213.955L289.138 215.925ZM290.394 202.947L292.364 203.292L292.709 201.322L290.739 200.977L290.394 202.947ZM292.019 205.262L290.049 204.917L289.704 206.887L291.675 207.232L292.019 205.262ZM290.049 204.917C289.505 204.822 289.141 204.304 289.237 203.76L287.267 203.415C286.981 205.047 288.072 206.602 289.704 206.887L290.049 204.917ZM293.177 204.45C293.082 204.994 292.563 205.357 292.019 205.262L291.675 207.232C293.307 207.518 294.861 206.426 295.147 204.794L293.177 204.45ZM292.364 203.292C292.908 203.387 293.272 203.906 293.177 204.45L295.147 204.794C295.432 203.162 294.341 201.608 292.709 201.322L292.364 203.292ZM290.739 200.977C289.107 200.692 287.552 201.783 287.267 203.415L289.237 203.76C289.332 203.216 289.85 202.852 290.394 202.947L290.739 200.977ZM286.872 211.468L286.882 211.47L287.227 209.499L287.217 209.498L286.872 211.468ZM286.183 215.408L286.193 215.41L286.537 213.44L286.528 213.438L286.183 215.408Z" fill="#9975F0"/>
</g>
<g opacity="0.7" clip-path="url(#clip1_5_32)">
<path d="M16.4883 13.3312L18.3193 6.5749L6.75538 14.8378L13.5117 16.6688L11.6807 23.4251L23.2446 15.1622L16.4883 13.3312Z" stroke="#5FD0C4" strokeWidth="2" strokeLinecap="round" strokeLinejoin="round"/>
</g>
<path d="M349 28V32M347 30H351M350 42V46M348 44H352M357 28L359.286 34.8571L365 37L359.286 39.1429L357 46L354.714 39.1429L349 37L354.714 34.8571L357 28Z" stroke="white" strokeWidth="2" strokeLinecap="round" strokeLinejoin="round"/>
<g opacity="0.7" clip-path="url(#clip2_5_32)">
<path d="M392.616 396.52L399.384 381.48M402.613 386.125L405.842 390.77L401.197 393.999M389.387 391.875L386.158 387.23L390.803 384.001" stroke="#224BD5" strokeWidth="2" strokeLinecap="round" strokeLinejoin="round"/>
</g>
<defs>
<clipPath id="clip0_5_32">
<rect width="24" height="24" fill="white" transform="translate(280.248 197.111) rotate(9.92792)"/>
</clipPath>
<clipPath id="clip1_5_32">
<rect width="24" height="24" fill="white" transform="translate(6.55664 0.278931) rotate(15.1633)"/>
</clipPath>
<clipPath id="clip2_5_32">
<rect width="24" height="24" fill="white" transform="translate(386.313 375.066) rotate(10.1939)"/>
</clipPath>
</defs>
</svg>
