<svg width="100" height="100" viewBox="0 0 100 100" fill="none" xmlns="http://www.w3.org/2000/svg">
<path d="M38.8906 39.417C38.8906 45.1664 32.909 51.802 32.909 54.8624H33.0375C33.9775 54.8624 34.7462 55.6343 34.7462 56.5792C34.7462 57.5231 33.9775 58.295 33.0375 58.295C33.9775 58.295 34.7462 59.0669 34.7462 60.0108C34.7462 60.9547 33.9775 61.7267 33.0375 61.7267C33.0375 62.7712 32.6667 63.7151 32.0547 64.4587" stroke="#39BBF5" strokeWidth="2" strokeLinecap="round" strokeLinejoin="round"/>
<path d="M42.4513 39.417H68.8005C68.53 39.417 68.2438 39.4453 67.9598 39.503C67.8741 39.5166 67.7895 39.5313 67.7174 39.5596C67.6464 39.5743 67.589 39.589 67.5326 39.6173C67.3049 39.675 67.0908 39.7599 66.8913 39.8753C66.7775 39.9173 66.6636 39.9886 66.5644 40.0609C66.3503 40.1889 66.1654 40.3326 65.9795 40.5035C65.7957 40.6755 65.6244 40.8612 65.4813 41.0478C65.0687 41.5187 64.7836 42.0914 64.6698 42.7207C64.6269 42.878 64.5987 43.0489 64.5705 43.2209C64.5413 43.4359 64.5277 43.6499 64.5277 43.8649V47.9981V56.4356" stroke="#39BBF5" strokeWidth="2" strokeLinecap="round" strokeLinejoin="round"/>
<path d="M32.0548 68.8781V84.0382H56.7653C57.1361 84.0382 57.392 84.2951 57.4484 84.6098C57.4912 84.8384 57.4348 85.0953 57.2353 85.2957C56.4656 86.0686 55.982 87.1415 55.982 88.3277C55.982 90.7021 57.8902 92.6182 60.2548 92.6182C62.6194 92.6182 64.5276 90.7021 64.5276 88.3277V83.7089" stroke="#39BBF5" strokeWidth="2" strokeLinecap="round" strokeLinejoin="round"/>
<path d="M64.5274 60.011H49.9427C48.6894 60.011 48.0492 61.5265 48.9317 62.4421L64.5274 78.5745" stroke="#39BBF5" strokeWidth="2" strokeLinecap="round" strokeLinejoin="round"/>
<path fill-rule="evenodd" clipRule="evenodd" d="M73.0726 43.7073V46.5684C73.0726 47.3539 72.4324 47.9979 71.649 47.9979H64.527V43.8646C64.527 43.6496 64.5416 43.4357 64.5698 43.2217C64.599 43.0497 64.6272 42.8777 64.6701 42.7204C64.8257 42.1058 65.0962 41.5332 65.4806 41.0476C65.6236 40.8609 65.7949 40.6753 65.9798 40.5033C66.1657 40.346 66.3495 40.1897 66.5647 40.0607C66.6629 39.9894 66.7778 39.9317 66.8916 39.874C67.09 39.7597 67.3052 39.6747 67.5318 39.6171C67.5893 39.5887 67.6467 39.5741 67.7178 39.5594C67.7888 39.5311 67.8734 39.5164 67.959 39.5027C68.2442 39.4451 68.5293 39.4167 68.7998 39.4167C71.1644 39.4167 73.0726 41.3476 73.0726 43.7073Z" stroke="#39BBF5" strokeWidth="2" strokeLinecap="round" strokeLinejoin="round"/>
<path fill-rule="evenodd" clipRule="evenodd" d="M34.7465 56.5789C34.7465 57.5228 33.9777 58.2947 33.0367 58.2947H24.4921C23.5385 58.2947 22.7823 57.5228 22.7823 56.5789C22.7823 55.635 23.5385 54.8621 24.4921 54.8621H33.0367C33.9777 54.8621 34.7465 55.635 34.7465 56.5789Z" stroke="#39BBF5" strokeWidth="2" strokeLinecap="round" strokeLinejoin="round"/>
<path fill-rule="evenodd" clipRule="evenodd" d="M34.7465 60.011C34.7465 60.9549 33.9777 61.7268 33.0367 61.7268H24.4921C23.5385 61.7268 22.7823 60.9549 22.7823 60.011C22.7823 59.0671 23.5385 58.2952 24.4921 58.2952H33.0367C33.9777 58.2952 34.7465 59.0671 34.7465 60.011Z" stroke="#39BBF5" strokeWidth="2" strokeLinecap="round" strokeLinejoin="round"/>
<path fill-rule="evenodd" clipRule="evenodd" d="M33.037 61.7271C33.037 62.7716 32.6672 63.7155 32.0552 64.4581C31.2719 65.4177 30.0896 66.0176 28.7642 66.0176C26.4006 66.0176 24.4913 64.1015 24.4913 61.7271H33.037Z" stroke="#39BBF5" strokeWidth="2" strokeLinecap="round" strokeLinejoin="round"/>
<path fill-rule="evenodd" clipRule="evenodd" d="M60.2548 92.6185H27.9386C25.8738 92.6185 23.9792 91.2173 23.5938 89.1722C23.224 87.2414 24.1504 85.4815 25.6597 84.61C26.2874 84.2377 27.0133 84.0374 27.782 84.0374H56.7653C57.1361 84.0374 57.392 84.2954 57.4484 84.61C57.4912 84.8386 57.4348 85.0966 57.2353 85.2959C56.4656 86.0688 55.982 87.1407 55.982 88.3279C55.982 90.7024 57.8902 92.6185 60.2548 92.6185Z" stroke="#39BBF5" strokeWidth="2" strokeLinecap="round" strokeLinejoin="round"/>
<path fill-rule="evenodd" clipRule="evenodd" d="M38.8905 39.417C38.8905 45.1653 32.909 51.802 32.909 54.8624H29.4905L32.0547 47.1402L33.2944 43.4065C33.4929 42.7783 33.3644 42.105 32.98 41.6047C32.8662 41.4338 32.7095 41.2754 32.5247 41.1622C31.7559 40.6472 30.7303 40.7468 30.0754 41.4055C29.2775 42.2057 27.9949 42.2057 27.198 41.4055C26.5431 40.7468 25.5175 40.6472 24.7477 41.1622C24.0218 41.6477 23.7085 42.578 23.979 43.4065L27.7818 54.8624H24.3644C24.3644 50.5718 18.3818 44.8948 18.3818 39.546C18.3818 33.4526 22.6975 29.1201 28.7647 29.1201C34.8318 29.1201 38.8905 33.3246 38.8905 39.417Z" stroke="#39BBF5" strokeWidth="2" strokeLinecap="round" strokeLinejoin="round"/>
<path fill-rule="evenodd" clipRule="evenodd" d="M33.294 43.4067L32.0542 47.1404L29.4901 54.8625H27.7824L23.9786 43.4067C23.7081 42.5771 24.0214 41.6479 24.7473 41.1613C25.5181 40.6474 26.5427 40.747 27.1975 41.4046C27.9955 42.2059 29.277 42.2059 30.075 41.4046C30.7299 40.747 31.7555 40.6474 32.5253 41.1613C32.7091 41.2756 32.8668 41.434 32.9796 41.6049C33.3639 42.1052 33.4924 42.7774 33.294 43.4067Z" stroke="#39BBF5" strokeWidth="2" strokeLinecap="round" strokeLinejoin="round"/>
<path d="M87.6 31.2648V29.978" stroke="#39BBF5" strokeWidth="2" strokeLinecap="round" strokeLinejoin="round"/>
<path d="M90.3192 32.396L91.2258 31.4857" stroke="#39BBF5" strokeWidth="2" strokeLinecap="round" strokeLinejoin="round"/>
<path d="M91.4452 35.1266H92.7278" stroke="#39BBF5" strokeWidth="2" strokeLinecap="round" strokeLinejoin="round"/>
<path d="M90.3192 37.8571L91.2258 38.7675" stroke="#39BBF5" strokeWidth="2" strokeLinecap="round" strokeLinejoin="round"/>
<path d="M87.6 38.9878V40.2746" stroke="#39BBF5" strokeWidth="2" strokeLinecap="round" strokeLinejoin="round"/>
<path d="M84.8808 37.8571L83.9742 38.7675" stroke="#39BBF5" strokeWidth="2" strokeLinecap="round" strokeLinejoin="round"/>
<path d="M83.7547 35.1266H82.4722" stroke="#39BBF5" strokeWidth="2" strokeLinecap="round" strokeLinejoin="round"/>
<path d="M84.8808 32.396L83.9742 31.4857" stroke="#39BBF5" strokeWidth="2" strokeLinecap="round" strokeLinejoin="round"/>
<path d="M32.4821 24.2573V17.393" stroke="#39BBF5" strokeWidth="2" strokeLinecap="round" strokeLinejoin="round"/>
<path d="M29.0632 20.8246H35.9002" stroke="#39BBF5" strokeWidth="2" strokeLinecap="round" strokeLinejoin="round"/>
<path d="M12.4 35.9843V32.5527" stroke="#39BBF5" strokeWidth="2" strokeLinecap="round" strokeLinejoin="round"/>
<path d="M10.6906 34.2683H14.109" stroke="#39BBF5" strokeWidth="2" strokeLinecap="round" strokeLinejoin="round"/>
<path d="M69.6548 33.8391V30.4075" stroke="#39BBF5" strokeWidth="2" strokeLinecap="round" strokeLinejoin="round"/>
<path d="M67.9452 32.1231H71.3626" stroke="#39BBF5" strokeWidth="2" strokeLinecap="round" strokeLinejoin="round"/>
<path fill-rule="evenodd" clipRule="evenodd" d="M3.09686 54.0743C2.96109 54.3302 2.9684 54.6386 3.11775 54.8871C3.26502 55.1357 3.53344 55.2877 3.82171 55.2877H10.7244C11.0127 55.2877 11.2801 55.1357 11.4284 54.8871C11.5767 54.6386 11.5851 54.3302 11.4482 54.0743L7.9974 47.5761C7.85535 47.3076 7.57649 47.1398 7.27255 47.1398C6.96966 47.1398 6.68975 47.3076 6.54771 47.5761L3.09686 54.0743Z" stroke="#39BBF5" strokeWidth="2" strokeLinecap="round" strokeLinejoin="round"/>
<path d="M53.522 34.2842C45.7179 31.9213 41.2999 23.6527 43.6541 15.8162C45.5362 9.54762 52.1245 5.99855 58.3672 7.8895C63.3617 9.40184 66.189 14.694 64.6829 19.7093C63.4766 23.7208 59.2612 25.9925 55.2662 24.7822C52.0692 23.8142 50.2602 20.4277 51.2242 17.2184C51.996 14.6499 54.6938 13.1963 57.2506 13.9714C59.2967 14.5902 60.455 16.758 59.8377 18.8125C59.3437 20.4549 57.6172 21.3863 55.9806 20.8902" stroke="#39BBF5" strokeWidth="2" strokeLinecap="round" strokeLinejoin="round"/>
<path d="M82.498 60.8693V59.3004C82.498 58.3523 83.2626 57.5845 84.2068 57.5845H85.622C86.5672 57.5845 87.3317 56.8158 87.3317 55.8677V54.4455C87.3317 53.4985 88.0963 52.7297 89.0415 52.7297H90.4567C91.3998 52.7297 92.1665 51.961 92.1665 51.0139V49.5918C92.1665 48.6437 92.931 47.876 93.8752 47.876H95.2904C96.2346 47.876 97.0002 47.1072 97.0002 46.1602V44.738" stroke="#39BBF5" strokeWidth="2" strokeLinecap="round" strokeLinejoin="round"/>
<path d="M42.3094 49.7138H58.5453" stroke="#39BBF5" strokeWidth="2" strokeLinecap="round" strokeLinejoin="round"/>
<path d="M38.8905 54.8624H58.5449" stroke="#39BBF5" strokeWidth="2" strokeLinecap="round" strokeLinejoin="round"/>
<path d="M37.182 65.1597H44.8723" stroke="#39BBF5" strokeWidth="2" strokeLinecap="round" strokeLinejoin="round"/>
<path d="M37.182 70.3083H49.9994" stroke="#39BBF5" strokeWidth="2" strokeLinecap="round" strokeLinejoin="round"/>
<path d="M37.182 75.4565H55.982" stroke="#39BBF5" strokeWidth="2" strokeLinecap="round" strokeLinejoin="round"/>
<path d="M70.5095 77.5591L69.7902 78.2539C70.0734 78.5471 70.5062 78.639 70.8841 78.4863C71.2621 78.3335 71.5095 77.9667 71.5095 77.5591H70.5095ZM64.5269 71.3661L65.2461 70.6713L65.2455 70.6707L64.5269 71.3661ZM57.691 64.3015V63.3015C57.2895 63.3015 56.927 63.5416 56.7703 63.9112C56.6136 64.2809 56.6932 64.7084 56.9723 64.9969L57.691 64.3015ZM70.5095 64.3015H71.5095C71.5095 63.7492 71.0617 63.3015 70.5095 63.3015V64.3015ZM48.9323 62.442L48.2127 63.1364L48.2133 63.137L48.9323 62.442ZM64.5269 78.5743L65.2464 77.8799L65.2459 77.8793L64.5269 78.5743ZM70.3528 84.6101L69.6333 85.3046L69.6344 85.3057L70.3528 84.6101ZM72.332 86.6541L71.6136 87.3498L71.6178 87.354L72.332 86.6541ZM71.2287 76.8643L65.2461 70.6713L63.8077 72.0609L69.7902 78.2539L71.2287 76.8643ZM65.2455 70.6707L58.4096 63.6061L56.9723 64.9969L63.8082 72.0615L65.2455 70.6707ZM57.691 65.3015H70.5095V63.3015H57.691V65.3015ZM69.5095 64.3015V77.5591H71.5095V64.3015H69.5095ZM73.3577 59.0109H49.9433V61.0109H73.3577V59.0109ZM49.9433 59.0109C47.7885 59.0109 46.729 61.599 48.2127 63.1364L49.6518 61.7476C49.3684 61.4538 49.5894 61.0109 49.9433 61.0109V59.0109ZM48.2133 63.137L63.8079 79.2694L65.2459 77.8793L49.6513 61.747L48.2133 63.137ZM63.8074 79.2688L69.6333 85.3046L71.0723 83.9156L65.2464 77.8799L63.8074 79.2688ZM69.6344 85.3057L71.6136 87.3498L73.0504 85.9585L71.0712 83.9145L69.6344 85.3057ZM71.6178 87.354C73.1394 88.9069 75.7823 87.8398 75.7823 85.6536H73.7823C73.7823 86.0411 73.3189 86.2325 73.0463 85.9543L71.6178 87.354ZM75.7823 85.6536V61.4415H73.7823V85.6536H75.7823ZM75.7823 61.4415C75.7823 60.1065 74.6972 59.0109 73.3577 59.0109V61.0109C73.5848 61.0109 73.7823 61.2033 73.7823 61.4415H75.7823Z" fill="#39BBF5"/>
</svg>
