<?xml version="1.0" encoding="UTF-8"?><svg xmlns="http://www.w3.org/2000/svg" viewBox="0 0 49.44 56.84"><defs><style>.d{fill:#202d3a;}.e{fill:#2be28a;}.e,.f{fill-rule:evenodd;}.f{fill:#00bbf0;}</style></defs><g id="a"/><g id="b"><g id="c"><g><path class="f" d="M8.74,22.02c1.43,.62,3.28-.06,3.96-1.46,.4-.83,.41-1.79,.69-2.66,.8-2.47,3.57-3.7,6.13-4.13,1.16-.2,2.35-.29,3.53-.28,.82,0,1.66,.06,2.44-.18s1.5-.89,1.55-1.71c.07-1.16-1.15-1.95-2.24-2.33-3.31-1.16-7.06-.96-10.23,.52-4.31,2.02-7.45,6.81-6.66,11.51"/><path class="e" d="M9.13,35.22c.22-2.04,2.37-3.39,4.41-3.61s4.08,.36,6.12,.55c3.21,.31,6.51-.35,9.36-1.87,1.82-.97,3.86-2.33,5.77-1.54,1.02,.42,1.71,1.38,2.32,2.3,4.07,6.1,7.43,12.66,10,19.53,.1,.27,.2,.55,.23,.84,.13,1.46-1.81,2.38-3.19,1.87s-2.23-1.86-2.99-3.12l-8.79-14.63c-.22-.36-.49-.76-.91-.79-.57-.05-.92,.57-1.22,1.05-1.8,2.91-5.86,3.13-9.28,3.02-4.06-.13-8.31-.31-11.84-2.34"/><path class="d" d="M28.52,5.29c3.13,1.94,5.97,4.56,7.49,7.97,1.92,4.31,1.11,9.15-.89,13.28s-5,8.07-9.5,9.69c-3.2,1.15-6.67,1.2-9.98,.49-2.27-.48-4.43-1.13-6.32-2.34-.45-.29-.45-.3-.93-.73s-.91-.87-1.32-1.34c-1.07-1.22-1.95-2.62-2.64-4.1-1.85-4-1.82-8.51-.43-12.64,1.54-4.57,4.52-9.07,8.96-11.23,3.28-1.59,7.12-1.62,10.62-.81,1.28,.3,2.54,.7,3.76,1.2,.06,.02,.27,.12-.02,0,.1,.04,.2,.09,.3,.13,.16,.07,.32,.15,.48,.22,.14,.06,.27,.13,.4,.2,1.7,.92,3.21-1.67,1.51-2.59C25.28,.13,19.04-.82,13.86,.8S5.07,6.39,2.69,11.05-.81,21.46,.72,26.76c1,3.46,3,6.82,5.74,9.18,1.9,1.63,4.29,2.57,6.67,3.25,3.65,1.05,7.58,1.35,11.31,.52,4.87-1.09,8.83-4.29,11.49-8.44,3.32-5.19,5.44-11.75,3.36-17.81-1.59-4.64-5.16-8.2-9.25-10.74-1.64-1.02-3.15,1.57-1.51,2.59Z"/><path class="d" d="M29.72,35.64l13,19.52c.28,.42,.54,.85,.93,1.16,1.35,1.05,2.99,.38,3.76-.97,.93-1.62,2.7-4.11,1.76-5.98-1.66-3.31-3.74-6.48-5.59-9.69l-6.23-10.8c-.96-1.67-3.56-.16-2.59,1.51l11.15,19.33c.13,.23,.4,.99,.64,1.11s.26-.61,0-.38c-.27,.24-.46,.89-.62,1.21l-.8,1.57c-.06,.12-.47,.7-.44,.85-.01-.05,.9,.37,.87-.04-.01-.13-.24-.36-.31-.46l-6.76-10.15-6.19-9.3c-1.07-1.6-3.66-.1-2.59,1.51h0Z"/><path class="d" d="M28.05,8.35c-3.11-1.98-7.17-3.04-10.81-2.4-3.33,.58-5.62,2.85-7.43,5.55-1.52,2.28-3.07,4.86-3.4,7.63-.13,1.05-.03,2.26,.72,3.08,1.31,1.43,3.42-.7,2.12-2.12-.03-.03,.31,.43,.17,.21-.19-.31,.18,.17,.02,.05-.02-.02-.04-.21-.06-.21,0,0-.02-.11-.02-.13,0,.01,.03,.42,.03,.18s-.01-.48,0-.73c.02-.41-.03,.08,.02-.18,.04-.18,.07-.36,.12-.54,.11-.44,.25-.87,.42-1.3,.5-1.26,1.19-2.45,1.92-3.59,1.47-2.32,3.07-4.36,5.87-4.96,1.92-.41,3.92-.02,5.75,.61,.86,.3,1.29,.48,2.14,.91,.31,.16,.63,.33,.92,.52,1.63,1.04,3.14-1.56,1.51-2.59h0Z"/></g></g></g></svg>