<?xml version="1.0" encoding="UTF-8"?><svg xmlns="http://www.w3.org/2000/svg" viewBox="0 0 61.33 61.17"><defs><style>.d{fill:#202d3a;}.e{fill:#ea2a74;}.e,.f{fill-rule:evenodd;}.f{fill:#00bbf0;}</style></defs><g id="a"/><g id="b"><g id="c"><g><path class="e" d="M27.17,22.8c-1.23-.08-2.44,.57-3.19,1.54s-1.07,2.23-1.04,3.46c.06,2.61,1.75,5.12,4.14,6.17s5.38,.58,7.34-1.15c.52-.46,.97-1,1.29-1.62,.43-.85,.58-1.82,.62-2.77,.06-1.48-.16-3.04-1.07-4.2-.64-.81-1.56-1.35-2.52-1.71-2.48-.92-5.36-.7-7.66,.59"/><path class="f" d="M6.76,15.09c.95-.82,1.95-1.67,3.17-2s2.71,0,3.32,1.11c.29,.52,.35,1.14,.37,1.74,.11,4.07-2.39,6.68-2.82,10.74-.34,3.15,.99,7.7,1.96,10.72,.8,2.48,2.98,3.16,5.27,4.4,1.39,.75,3.34,1.76,4.92,1.88,6.74,.53,12.51,.37,19.02,2.2,.59,.16,1.19,.37,1.63,.79,1.08,1.04,.65,2.97-.48,3.95s-2.69,1.25-4.17,1.47c-5.15,.77-10.38,1.36-15.55,.77s-10.33-2.46-14.09-6.06C2.9,40.65,1.74,30.61,3.81,21.98c.64-2.65,1.57-5.29,3.3-7.39"/><path class="d" d="M50.94,47.32c5.07-5.66,8.57-12.7,7.42-20.46-.8-5.46-3.81-10.36-7.5-14.36-1.3-1.41-2.71-2.72-4.21-3.92-.5-.4-1.01-.79-1.53-1.17-.22-.16-.69-.64-.16-.09-2.24-2.29-5.26-4.06-8.18-5.32-6-2.58-12.56-2.73-18.58-.09-4.23,1.85-7.87,4.93-10.92,8.36S1.9,17.36,.73,21.66c-2.64,9.68,2.2,19.55,9.42,25.9,8.48,7.46,20.6,10.07,31.2,5.8,2.3-.93,4.47-2.09,6.54-3.44,1.61-1.05,.11-3.65-1.51-2.59-6.61,4.33-14.35,6.34-22.12,4.38-2.59-.65-5.05-1.67-7.37-2.99-.88-.5-1.73-1.04-2.56-1.63-.73-.51-.82-.58-1.44-1.09-5.42-4.53-9.83-11.18-9.93-18.43-.11-8.17,5.56-15.63,11.91-20.25,5.25-3.82,11.56-5.38,17.87-3.58,2.22,.63,4.32,1.61,6.28,2.83,1.38,.86,2.24,1.48,3.33,2.44,.38,.34,.76,.65,1.17,.95,.15,.11,.31,.22,.46,.34,.1,.08,.21,.16,.31,.23-.31-.24,.1,.08,.18,.15,.62,.5,1.23,1.01,1.82,1.55,3.31,3,6.28,6.63,7.93,10.82,2.27,5.76,1.51,11.82-1.64,17.11-1.08,1.82-2.37,3.48-3.78,5.06-1.29,1.43,.83,3.56,2.12,2.12h0Z"/><path class="d" d="M44.48,41.63c3.62-4.05,6.08-9.04,5.24-14.58-.58-3.84-2.69-7.3-5.3-10.11-.9-.98-1.88-1.89-2.92-2.72-.37-.3-.75-.59-1.14-.87-.23-.16-.46-.46-.02,0-1.56-1.64-3.77-2.89-5.82-3.77-4.35-1.86-9.08-1.91-13.41,.06-5.49,2.5-10.54,8.03-12.11,13.9-1.82,6.81,1.55,13.78,6.65,18.25,2.34,2.05,5.08,3.61,8.04,4.58,6.38,2.1,13.03,.73,18.58-2.88,1.61-1.05,.11-3.65-1.51-2.59-4.47,2.92-9.67,4.31-14.93,2.97-1.75-.44-3.41-1.13-4.98-2.03-1.02-.58-2.02-1.27-2.65-1.8-3.57-3-6.55-7.35-6.7-12.14-.18-5.59,3.69-10.68,8.03-13.84,3.56-2.59,7.82-3.61,12.09-2.36,1.47,.43,2.85,1.09,4.14,1.9,.98,.61,1.41,.94,2.17,1.6,.29,.25,.57,.48,.88,.7,.1,.07,.2,.15,.3,.22,.34,.25,.06,.04,.19,.14,.42,.34,.84,.69,1.24,1.05,2.55,2.29,4.8,5.12,5.82,8.43,1.57,5.11-.58,9.94-4,13.77-1.28,1.44,.83,3.57,2.12,2.12h0Z"/><path class="d" d="M37.59,35.56c2.04-2.29,3.38-5.07,2.94-8.19-.31-2.16-1.48-4.09-2.93-5.68-.48-.52-1-1.01-1.55-1.45-.24-.19-.48-.38-.72-.56-.33-.24,.05-.06,.12,.1-.13-.3-.87-.73-1.08-.88-.66-.48-1.36-.88-2.11-1.21-2.48-1.07-5.15-1.12-7.63,0-3.06,1.37-5.87,4.46-6.74,7.73-1.01,3.8,.8,7.72,3.65,10.23,1.34,1.18,2.9,2.06,4.6,2.6,3.48,1.11,7.14,.36,10.16-1.61,1.61-1.05,.11-3.65-1.51-2.59-2.22,1.44-4.77,2.11-7.28,1.47-1-.26-1.52-.48-2.39-.98-.3-.17-.59-.36-.88-.56-.11-.08-.22-.16-.33-.24,.12,.09,.17,.15-.04-.04-.51-.45-.99-.91-1.43-1.43-.05-.06-.1-.12-.15-.18-.25-.3,.12,.16-.03-.04-.12-.16-.24-.33-.35-.49-.26-.39-.49-.79-.69-1.21-.32-.65-.61-1.71-.63-2.5-.07-2.62,1.81-5.14,3.94-6.65,.89-.63,2.09-1.18,3.01-1.31,1.09-.15,1.78-.05,2.76,.26,.18,.06,.36,.12,.54,.19,.28,.1,.08,.03,.03,0,.1,.04,.2,.09,.3,.14,.35,.17,.69,.35,1.02,.56,.25,.16,.49,.33,.74,.51-.39-.28,.13,.12,.26,.22,.19,.16,.38,.32,.59,.47,.05,.04,.11,.08,.16,.12,.27,.19-.28-.24-.03-.02,.21,.18,.42,.35,.63,.53,.29,.26,.56,.53,.83,.81,.16,.17,.31,.34,.46,.51,.06,.07,.11,.13,.17,.2,.28,.34-.17-.24,.09,.12,.29,.4,.56,.81,.8,1.24,.08,.14,.27,.54,.28,.55,.02,.04,.18,.48,.24,.66,.31,1.01,.36,1.9,.12,2.89-.33,1.37-1.1,2.55-2.03,3.59-1.28,1.44,.83,3.57,2.12,2.12h0Z"/><path class="d" d="M28.23,28.87l25.76,25.13,3.71,3.61c1.38,1.35,3.51-.77,2.12-2.12l-25.76-25.13-3.71-3.61c-1.38-1.35-3.51,.77-2.12,2.12h0Z"/><path class="d" d="M50,49.47v10.19c0,.81,.69,1.5,1.5,1.5s1.5-.69,1.5-1.5v-10.19c0-.81-.69-1.5-1.5-1.5s-1.5,.69-1.5,1.5h0Z"/><path class="d" d="M51.47,50.97h8.37c.78,0,1.54-.69,1.5-1.5s-.66-1.5-1.5-1.5h-8.37c-.78,0-1.54,.69-1.5,1.5s.66,1.5,1.5,1.5h0Z"/><path class="d" d="M33.08,30.71c.22-.25,.44-.52,.59-.82,.2-.42,.28-.72,.32-1.18,.05-.54-.12-1.1-.38-1.57-.28-.52-.74-.97-1.23-1.3l.3,.23c-.17-.17-.37-.31-.57-.44-.37-.23-.79-.37-1.22-.42-.64-.09-1.26,.04-1.83,.35-.18,.1-.35,.24-.51,.37-.1,.08-.2,.16-.29,.26-.23,.24-.46,.52-.61,.82-.21,.42-.3,.76-.34,1.22-.02,.28,.02,.56,.08,.83,.11,.52,.4,.94,.72,1.35,.23,.29,.53,.54,.85,.73,1.11,.68,2.54,.65,3.63-.06,.33-.21,.58-.52,.69-.9,.1-.36,.05-.84-.15-1.16s-.51-.6-.9-.69-.82-.07-1.16,.15c-.12,.08-.25,.15-.39,.21l.36-.15c-.16,.06-.32,.11-.48,.13l.4-.05c-.16,.02-.31,.02-.47,0l.4,.05c-.17-.02-.33-.07-.48-.13l.36,.15c-.17-.07-.33-.16-.48-.28l.3,.23c-.14-.11-.26-.23-.37-.37l.23,.3c-.1-.13-.19-.28-.25-.43l.15,.36c-.05-.12-.08-.25-.1-.38l.05,.4c-.01-.11-.01-.22,0-.33l-.05,.4c.02-.12,.05-.24,.1-.36l-.15,.36c.06-.15,.15-.28,.25-.41l-.23,.3c.14-.17,.29-.32,.46-.46l-.3,.23c.12-.09,.25-.16,.38-.22l-.36,.15c.11-.04,.22-.07,.33-.09l-.4,.05c.12-.02,.24-.02,.37,0l-.4-.05c.14,.02,.27,.06,.39,.11l-.36-.15c.15,.06,.29,.14,.41,.24l-.3-.23c.17,.13,.33,.26,.5,.39l-.3-.23c.16,.13,.31,.27,.44,.44l-.23-.3c.1,.12,.18,.26,.24,.4l-.15-.36c.05,.12,.09,.25,.11,.38l-.05-.4c.01,.11,.01,.22,0,.33l.05-.4c-.02,.12-.05,.24-.1,.36l.15-.36c-.07,.15-.15,.28-.25,.41l.23-.3s-.08,.1-.12,.14c-.27,.3-.44,.65-.44,1.06,0,.37,.16,.81,.44,1.06s.66,.46,1.06,.44,.8-.14,1.06-.44h0Z"/></g></g></g></svg>