<svg width="36" height="36" viewBox="0 0 36 36" fill="none" xmlns="http://www.w3.org/2000/svg">
<path fill-rule="evenodd" clip-rule="evenodd" d="M21.2372 18.0397C21.2372 19.869 19.7542 21.352 17.9249 21.352C16.0955 21.352 14.6126 19.869 14.6126 18.0397C14.6126 16.2103 16.0955 14.7273 17.9249 14.7273C19.7542 14.7273 21.2372 16.2103 21.2372 18.0397" fill="#00BBF0"/>
<path fill-rule="evenodd" clip-rule="evenodd" d="M30.5884 35.981L23.1966 33.6601C23.151 33.6755 23.1052 33.6906 23.0594 33.7056C21.4488 34.2326 19.7287 34.5177 17.9422 34.5177C8.86139 34.5177 1.49998 27.1563 1.49998 18.0755C1.49998 13.6887 3.21805 9.70288 6.01789 6.75471L10.0173 11.4976C8.53474 13.2815 7.64349 15.5744 7.64349 18.0755C7.64349 23.7632 12.254 28.3743 17.9422 28.3743C19.8171 28.3743 21.5749 27.873 23.0895 26.9976L27.0843 31.7436C27.0749 31.7497 27.0657 31.7562 27.0563 31.7622L27.0779 31.754L30.5884 35.981Z" fill="#00204A"/>
<path fill-rule="evenodd" clip-rule="evenodd" d="M5.26128 0.0982971L12.6531 2.41922C12.6986 2.40377 12.7445 2.38872 12.7903 2.37377C14.4008 1.84676 16.121 1.56161 17.9074 1.56161C26.9883 1.56161 34.3497 8.92302 34.3497 18.0039C34.3497 22.3907 32.6317 26.3764 29.8318 29.3246L25.8323 24.5818C27.3149 22.7979 28.2062 20.505 28.2062 18.0039C28.2062 12.3161 23.5956 7.70512 17.9074 7.70512C16.0326 7.70512 14.2748 8.20626 12.7602 9.08167L8.76537 4.33567C8.77472 4.32967 8.78396 4.32318 8.79331 4.31708L8.77177 4.32535L5.26128 0.0982971Z" fill="#00204A"/>
</svg>
